<svg width="189" height="40" viewBox="0 0 189 40" xmlns="http://www.w3.org/2000/svg">
<g fill="#FFFFFF" fill-rule="nonzero">
	<path class="st0" d="M27.9,6.4c-1.2-2-2.8-3.6-4.8-4.7C21,0.6,18.6,0,15.8,0H0v39.4h8.2V27h7.6c2.8,0,5.2-0.6,7.3-1.7
		c2.1-1.1,3.7-2.7,4.8-4.7c1.2-2,1.7-4.4,1.7-7.1v-0.1C29.7,10.8,29.1,8.4,27.9,6.4z M18.3,11.3c0,0.8-0.6,1.4-1.4,1.4h-0.6
		c-0.8,0-1.4-0.6-1.4-1.4V8c0-0.8,0.6-1.4,1.4-1.4h0.6c0.8,0,1.4,0.6,1.4,1.4V11.3z M24.7,11.3c0,0.8-0.6,1.4-1.4,1.4h-0.6
		c-0.8,0-1.4-0.6-1.4-1.4V8c0-0.8,0.6-1.4,1.4-1.4h0.6c0.8,0,1.4,0.6,1.4,1.4V11.3z"/>
	<path class="st0" d="M30.9,0h8v15.2H39c0.8-1.8,1.9-3.2,3.4-4.2c1.5-1,3.4-1.5,5.6-1.5s4,0.5,5.5,1.4c1.5,0.9,2.7,2.3,3.5,4
		c0.8,1.7,1.2,3.8,1.2,6.1v18.4h-8V22.7c0-2-0.5-3.6-1.4-4.8c-1-1.2-2.4-1.7-4.2-1.7c-1.2,0-2.2,0.3-3,0.8c-0.9,0.6-1.5,1.3-2,2.3
		c-0.5,1-0.7,2.1-0.7,3.4v16.8h-8C30.9,39.4,30.9,0,30.9,0z"/>
	<path class="st0" d="M84.3,14.2c-1-1.5-2.5-2.6-4.3-3.4c-1.9-0.8-4.1-1.2-6.6-1.2s-4.8,0.4-6.7,1.2c-1.9,0.8-3.3,1.9-4.4,3.3
		c-1,1.4-1.7,3-1.8,4.8l0,0.3h7.3l0.1-0.2c0.2-0.9,0.7-1.7,1.6-2.3c0.9-0.6,2.1-0.9,3.5-0.9c1.6,0,2.8,0.4,3.6,1.1
		c0.8,0.7,1.2,1.8,1.2,3.1v1.8l-7.2,0.5c-2.4,0.2-4.5,0.6-6.2,1.3s-3,1.7-3.9,3c-0.9,1.3-1.3,2.8-1.3,4.6V31c0,1.7,0.4,3.2,1.2,4.6
		c0.8,1.3,2,2.4,3.5,3.1c1.5,0.8,3.2,1.1,5.1,1.1c1.3,0,2.5-0.2,3.6-0.6s2.1-0.9,2.9-1.7c0.9-0.7,1.6-1.6,2.1-2.6h0.2v4.3h8V19.3
		C85.8,17.4,85.3,15.6,84.3,14.2z M77.9,28.7c0,1-0.3,1.9-0.8,2.7c-0.5,0.8-1.3,1.4-2.2,1.9c-0.9,0.5-2,0.7-3.2,0.7
		c-1.4,0-2.5-0.3-3.3-0.9c-0.8-0.6-1.2-1.4-1.2-2.5v-0.1c0-1,0.4-1.9,1.2-2.5c0.8-0.6,2-1,3.5-1.1l6-0.4V28.7L77.9,28.7z"/>
	<path class="st0" d="M86.8,10.1h8v4.8H95c0.8-1.7,1.9-3,3.4-4c1.5-1,3.3-1.4,5.5-1.4c3.2,0,5.7,1,7.5,2.9c1.8,1.9,2.6,4.6,2.6,8.1
		v18.9h-8V22.2c0-1.9-0.5-3.4-1.4-4.5c-0.9-1.1-2.2-1.6-4-1.6c-1.2,0-2.2,0.3-3.1,0.8s-1.6,1.3-2,2.3c-0.5,1-0.7,2.1-0.7,3.4v16.8
		h-8V10.1z"/>
	<path class="st0" d="M124.2,16.6c1.2-2.3,2.9-4,5.1-5.2c0.7-0.4,1.4-0.7,2.1-1v-0.3H126V3H118v7.2h-4.1v6h4.1v15.1
		c0,3.1,0.8,5.4,2.3,6.7c1.6,1.4,4,2,7.2,2c0.8,0,1.6,0,2.2-0.1c0.6-0.1,1.2-0.1,1.6-0.2v-0.5c-0.8-0.3-1.5-0.6-2.2-1
		c-2.2-1.2-3.8-3-5-5.2c-1.2-2.3-1.8-5-1.8-8.2v-0.1C122.4,21.6,123,18.9,124.2,16.6L124.2,16.6z"/>
	<path class="st0" d="M143.3,24.7L143.3,24.7c0,2-0.3,3.6-0.8,4.9c-0.5,1.3-1.2,2.4-2.2,3.1c-0.9,0.7-2.1,1-3.4,1s-2.4-0.3-3.4-1
		c-1-0.7-1.7-1.7-2.2-3.1c-0.5-1.3-0.8-3-0.8-4.9v-0.1c0-1.9,0.3-3.5,0.8-4.8c0.5-1.3,1.3-2.3,2.2-3.1c1-0.7,2.1-1.1,3.3-1.1
		s2.4,0.3,3.4,1.1c1,0.7,1.7,1.7,2.2,3.1C143,21.2,143.3,22.8,143.3,24.7L143.3,24.7z"/>
	<path class="st0" d="M187.1,14.2c-0.8-1.5-1.9-2.6-3.4-3.4c-1.4-0.8-3.1-1.2-5-1.2c-1.4,0-2.8,0.2-4,0.7c-1.2,0.5-2.3,1.2-3.1,2.1
		c-0.9,0.9-1.5,2-2,3.2h-0.2c-0.3-1.3-0.8-2.4-1.6-3.3c-0.8-0.9-1.7-1.6-2.8-2.1c-1.1-0.5-2.3-0.7-3.7-0.7c-2,0-3.7,0.5-5.1,1.5
		c-1.4,1-2.5,2.3-3.1,4H153v-4.9h-8v1.5c1.9,1.2,3.4,2.8,4.5,4.9c1.2,2.3,1.8,5,1.8,8.2v0.1c0,3.2-0.6,5.9-1.8,8.2
		c-1.1,2.1-2.6,3.7-4.5,4.9v1.5h8V21.7c0-1.1,0.2-2.1,0.6-2.9c0.4-0.8,1-1.5,1.8-2c0.8-0.5,1.6-0.7,2.6-0.7s1.8,0.2,2.5,0.6
		c0.7,0.4,1.2,1,1.6,1.7c0.4,0.7,0.6,1.6,0.6,2.7v18.2h7.7V21.6c0-1.1,0.2-2,0.6-2.9c0.4-0.8,1-1.5,1.8-1.9c0.8-0.5,1.6-0.7,2.6-0.7
		c1,0,1.9,0.2,2.6,0.6c0.7,0.4,1.2,1,1.6,1.8c0.4,0.8,0.6,1.7,0.6,2.9v18h8v-20C188.3,17.4,187.9,15.7,187.1,14.2L187.1,14.2z"/>
</g>
</svg>
